<svg width="260" height="72" viewBox="0 0 260 72" fill="none" xmlns="http://www.w3.org/2000/svg">
<g clip-path="url(#clip0_0_69)">
<rect width="204" height="72" fill="#151515"/>
<path d="M36.74 44.18C35.3933 44.18 34.42 43.9 33.82 43.34C33.2333 42.7667 32.9267 41.8267 32.9 40.52C32.8733 39.0533 32.86 37.5467 32.86 36C32.86 34.44 32.8733 32.9267 32.9 31.46C32.9267 30.1533 33.2333 29.22 33.82 28.66C34.42 28.1 35.3933 27.82 36.74 27.82C38.0733 27.82 39.0267 28.1 39.6 28.66C40.1867 29.22 40.5 30.1533 40.54 31.46C40.58 32.94 40.6 34.4533 40.6 36C40.6 37.5467 40.58 39.0533 40.54 40.52C40.5 41.8267 40.1867 42.7667 39.6 43.34C39.0267 43.9 38.0733 44.18 36.74 44.18ZM36.74 42.08C37.5267 42.08 37.9333 41.72 37.96 41C38 39.9867 38.0267 38.9 38.04 37.74C38.0533 36.5667 38.0533 35.4 38.04 34.24C38.0267 33.08 38 32 37.96 31C37.9333 30.28 37.5267 29.92 36.74 29.92C35.9267 29.92 35.5067 30.28 35.48 31C35.4533 32 35.4333 33.08 35.42 34.24C35.4067 35.4 35.4067 36.5667 35.42 37.74C35.4333 38.9 35.4533 39.9867 35.48 41C35.5067 41.72 35.9267 42.08 36.74 42.08ZM49.497 44.18C48.137 44.18 47.1637 43.9 46.577 43.34C45.9903 42.7667 45.6903 41.8267 45.677 40.52C45.6237 36.3467 45.6237 32.1733 45.677 28H48.257C48.2303 29.3867 48.217 30.82 48.217 32.3C48.217 33.7667 48.217 35.24 48.217 36.72C48.2303 38.1867 48.2437 39.6133 48.257 41C48.257 41.72 48.6703 42.08 49.497 42.08C50.3103 42.08 50.717 41.72 50.717 41C50.7303 39.6133 50.737 38.1867 50.737 36.72C50.7503 35.24 50.757 33.7667 50.757 32.3C50.757 30.82 50.7437 29.3867 50.717 28H53.297C53.3503 32.1733 53.3503 36.3467 53.297 40.52C53.2837 41.8267 52.9837 42.7667 52.397 43.34C51.8103 43.9 50.8437 44.18 49.497 44.18ZM58.6874 44V28H62.1874C63.5341 28 64.5074 28.28 65.1074 28.84C65.7074 29.3867 66.0341 30.3 66.0874 31.58C66.1007 32.22 66.1074 32.7733 66.1074 33.24C66.1074 33.7067 66.1007 34.2467 66.0874 34.86C66.0474 35.6733 65.9007 36.3333 65.6474 36.84C65.4074 37.3467 65.0274 37.7333 64.5074 38L66.3274 44H63.5874L62.0674 38.42H61.2674V44H58.6874ZM61.2674 36.14H62.1874C63.0141 36.14 63.4474 35.7533 63.4874 34.98C63.5541 33.8067 63.5541 32.6267 63.4874 31.44C63.4474 30.6667 63.0141 30.28 62.1874 30.28H61.2674V36.14ZM79.2219 44V28H81.8019V41.72H85.5619V44H79.2219ZM93.9843 44.18C92.6377 44.18 91.6643 43.9 91.0643 43.34C90.4777 42.7667 90.171 41.8267 90.1443 40.52C90.1177 39.0533 90.1043 37.5467 90.1043 36C90.1043 34.44 90.1177 32.9267 90.1443 31.46C90.171 30.1533 90.4777 29.22 91.0643 28.66C91.6643 28.1 92.6377 27.82 93.9843 27.82C95.3177 27.82 96.271 28.1 96.8443 28.66C97.431 29.22 97.7443 30.1533 97.7843 31.46C97.8243 32.94 97.8443 34.4533 97.8443 36C97.8443 37.5467 97.8243 39.0533 97.7843 40.52C97.7443 41.8267 97.431 42.7667 96.8443 43.34C96.271 43.9 95.3177 44.18 93.9843 44.18ZM93.9843 42.08C94.771 42.08 95.1777 41.72 95.2043 41C95.2443 39.9867 95.271 38.9 95.2843 37.74C95.2977 36.5667 95.2977 35.4 95.2843 34.24C95.271 33.08 95.2443 32 95.2043 31C95.1777 30.28 94.771 29.92 93.9843 29.92C93.171 29.92 92.751 30.28 92.7243 31C92.6977 32 92.6777 33.08 92.6643 34.24C92.651 35.4 92.651 36.5667 92.6643 37.74C92.6777 38.9 92.6977 39.9867 92.7243 41C92.751 41.72 93.171 42.08 93.9843 42.08ZM106.721 44.18C105.361 44.18 104.395 43.9 103.821 43.34C103.248 42.7667 102.948 41.8267 102.921 40.52C102.895 39.6533 102.881 38.6867 102.881 37.62C102.881 36.54 102.881 35.4667 102.881 34.4C102.881 33.32 102.895 32.34 102.921 31.46C102.935 30.3267 103.235 29.44 103.821 28.8C104.421 28.1467 105.388 27.82 106.721 27.82C108.028 27.82 108.975 28.1067 109.561 28.68C110.148 29.24 110.461 30.1733 110.501 31.48C110.501 31.8133 110.501 32.2133 110.501 32.68C110.501 33.1467 110.495 33.5533 110.481 33.9H107.901C107.915 33.4867 107.921 33.0067 107.921 32.46C107.921 31.9 107.921 31.4133 107.921 31C107.895 30.2933 107.495 29.94 106.721 29.94C105.921 29.94 105.515 30.2933 105.501 31C105.461 32.0267 105.435 33.12 105.421 34.28C105.421 35.4267 105.421 36.5733 105.421 37.72C105.435 38.8667 105.461 39.9533 105.501 40.98C105.515 41.7133 105.921 42.08 106.721 42.08C107.548 42.08 107.975 41.7133 108.001 40.98C108.001 40.58 108.001 40.0933 108.001 39.52C108.001 38.9467 108.001 38.46 108.001 38.06H110.581C110.581 38.4333 110.581 38.84 110.581 39.28C110.595 39.72 110.595 40.1333 110.581 40.52C110.541 41.8267 110.221 42.7667 109.621 43.34C109.021 43.9 108.055 44.18 106.721 44.18ZM114.848 44L116.928 28H121.088L123.188 44H120.528L120.168 40.34H117.848L117.488 44H114.848ZM118.088 38.06H119.928L119.588 34.52L119.288 30.28H118.728L118.448 34.52L118.088 38.06ZM128.873 44V30.28H126.433V28H133.873V30.28H131.453V44H128.873ZM138.458 44V28H141.038V44H138.458ZM150.115 44.18C148.769 44.18 147.795 43.9 147.195 43.34C146.609 42.7667 146.302 41.8267 146.275 40.52C146.249 39.0533 146.235 37.5467 146.235 36C146.235 34.44 146.249 32.9267 146.275 31.46C146.302 30.1533 146.609 29.22 147.195 28.66C147.795 28.1 148.769 27.82 150.115 27.82C151.449 27.82 152.402 28.1 152.975 28.66C153.562 29.22 153.875 30.1533 153.915 31.46C153.955 32.94 153.975 34.4533 153.975 36C153.975 37.5467 153.955 39.0533 153.915 40.52C153.875 41.8267 153.562 42.7667 152.975 43.34C152.402 43.9 151.449 44.18 150.115 44.18ZM150.115 42.08C150.902 42.08 151.309 41.72 151.335 41C151.375 39.9867 151.402 38.9 151.415 37.74C151.429 36.5667 151.429 35.4 151.415 34.24C151.402 33.08 151.375 32 151.335 31C151.309 30.28 150.902 29.92 150.115 29.92C149.302 29.92 148.882 30.28 148.855 31C148.829 32 148.809 33.08 148.795 34.24C148.782 35.4 148.782 36.5667 148.795 37.74C148.809 38.9 148.829 39.9867 148.855 41C148.882 41.72 149.302 42.08 150.115 42.08ZM159.012 44V28H162.872L163.992 33.1L165.172 41.72H165.672L165.212 34.54L165.012 28H167.492V44H163.472L162.332 38.64L161.392 30.26H160.852L161.292 37.88L161.512 44H159.012Z" fill="white"/>
</g>
<rect x="204" width="56" height="72" fill="#D5966C"/>
<path d="M228 24L236 36L228 48" stroke="white"/>
<defs>
<clipPath id="clip0_0_69">
<rect width="204" height="72" fill="white"/>
</clipPath>
</defs>
</svg>
