<svg width="20" height="17" viewBox="0 0 20 17" fill="none" xmlns="http://www.w3.org/2000/svg">
<path d="M20 2.17215C19.2642 2.49882 18.4733 2.71882 17.6433 2.81799C18.4908 2.31049 19.1417 1.50632 19.4475 0.547986C18.655 1.01799 17.7767 1.35965 16.8417 1.54382C16.0942 0.746319 15.0267 0.247986 13.8467 0.247986C11.1975 0.247986 9.25083 2.71965 9.84917 5.28549C6.44 5.11465 3.41667 3.48132 1.3925 0.998819C0.3175 2.84299 0.835 5.25549 2.66167 6.47715C1.99 6.45549 1.35667 6.27132 0.804167 5.96382C0.759167 7.86465 2.12167 9.64299 4.095 10.0388C3.5175 10.1955 2.885 10.2322 2.24167 10.1088C2.76333 11.7388 4.27833 12.9247 6.075 12.958C4.35 14.3105 2.17667 14.9147 0 14.658C1.81583 15.8222 3.97333 16.5013 6.29 16.5013C13.9083 16.5013 18.2125 10.0672 17.9525 4.29632C18.7542 3.71715 19.45 2.99465 20 2.17215Z" fill="#151515"/>
</svg>
