<svg width="264" height="72" viewBox="0 0 264 72" fill="none" xmlns="http://www.w3.org/2000/svg">
<g clip-path="url(#clip0_0_12)">
<rect x="56" width="208" height="72" fill="#151515"/>
<path d="M88.86 44V28H92.24C93.5733 28 94.5533 28.28 95.18 28.84C95.8067 29.3867 96.12 30.3 96.12 31.58C96.12 31.8867 96.12 32.1667 96.12 32.42C96.12 32.6733 96.1133 32.92 96.1 33.16C96.06 33.8533 95.9067 34.4 95.64 34.8C95.3867 35.2 94.9933 35.4933 94.46 35.68V36.12C95.02 36.3067 95.4267 36.6067 95.68 37.02C95.9467 37.4333 96.0933 37.9867 96.12 38.68C96.1467 39.2533 96.1467 39.8333 96.12 40.42C96.0667 41.7 95.74 42.62 95.14 43.18C94.5533 43.7267 93.5867 44 92.24 44H88.86ZM91.44 34.74H92.22C93.0867 34.74 93.5267 34.1933 93.54 33.1C93.54 32.54 93.54 31.9867 93.54 31.44C93.5267 30.6667 93.0933 30.28 92.24 30.28H91.44V34.74ZM91.44 41.72H92.24C93.0933 41.72 93.5267 41.28 93.54 40.4C93.5533 39.8667 93.5533 39.3333 93.54 38.8C93.54 38.16 93.4333 37.7067 93.22 37.44C93.02 37.16 92.6867 37.02 92.22 37.02H91.44V41.72ZM100.377 44L102.457 28H106.617L108.717 44H106.057L105.697 40.34H103.377L103.017 44H100.377ZM103.617 38.06H105.457L105.117 34.52L104.817 30.28H104.257L103.977 34.52L103.617 38.06ZM117.121 44.18C115.761 44.18 114.794 43.9 114.221 43.34C113.648 42.7667 113.348 41.8267 113.321 40.52C113.294 39.6533 113.281 38.6867 113.281 37.62C113.281 36.54 113.281 35.4667 113.281 34.4C113.281 33.32 113.294 32.34 113.321 31.46C113.334 30.3267 113.634 29.44 114.221 28.8C114.821 28.1467 115.788 27.82 117.121 27.82C118.428 27.82 119.374 28.1067 119.961 28.68C120.548 29.24 120.861 30.1733 120.901 31.48C120.901 31.8133 120.901 32.2133 120.901 32.68C120.901 33.1467 120.894 33.5533 120.881 33.9H118.301C118.314 33.4867 118.321 33.0067 118.321 32.46C118.321 31.9 118.321 31.4133 118.321 31C118.294 30.2933 117.894 29.94 117.121 29.94C116.321 29.94 115.914 30.2933 115.901 31C115.861 32.0267 115.834 33.12 115.821 34.28C115.821 35.4267 115.821 36.5733 115.821 37.72C115.834 38.8667 115.861 39.9533 115.901 40.98C115.914 41.7133 116.321 42.08 117.121 42.08C117.948 42.08 118.374 41.7133 118.401 40.98C118.401 40.58 118.401 40.0933 118.401 39.52C118.401 38.9467 118.401 38.46 118.401 38.06H120.981C120.981 38.4333 120.981 38.84 120.981 39.28C120.994 39.72 120.994 40.1333 120.981 40.52C120.941 41.8267 120.621 42.7667 120.021 43.34C119.421 43.9 118.454 44.18 117.121 44.18ZM125.668 44V28H128.428L128.388 31.76L127.928 35.56H128.428L129.468 31.76L130.828 28H133.648L131.048 34.72L133.788 44H131.168L129.348 37.62L128.308 39.94V44H125.668ZM148.554 44V30.28H146.114V28H153.554V30.28H151.134V44H148.554ZM161.804 44.18C160.458 44.18 159.484 43.9 158.884 43.34C158.298 42.7667 157.991 41.8267 157.964 40.52C157.938 39.0533 157.924 37.5467 157.924 36C157.924 34.44 157.938 32.9267 157.964 31.46C157.991 30.1533 158.298 29.22 158.884 28.66C159.484 28.1 160.458 27.82 161.804 27.82C163.138 27.82 164.091 28.1 164.664 28.66C165.251 29.22 165.564 30.1533 165.604 31.46C165.644 32.94 165.664 34.4533 165.664 36C165.664 37.5467 165.644 39.0533 165.604 40.52C165.564 41.8267 165.251 42.7667 164.664 43.34C164.091 43.9 163.138 44.18 161.804 44.18ZM161.804 42.08C162.591 42.08 162.998 41.72 163.024 41C163.064 39.9867 163.091 38.9 163.104 37.74C163.118 36.5667 163.118 35.4 163.104 34.24C163.091 33.08 163.064 32 163.024 31C162.998 30.28 162.591 29.92 161.804 29.92C160.991 29.92 160.571 30.28 160.544 31C160.518 32 160.498 33.08 160.484 34.24C160.471 35.4 160.471 36.5667 160.484 37.74C160.498 38.9 160.518 39.9867 160.544 41C160.571 41.72 160.991 42.08 161.804 42.08ZM178.654 44V28H181.234V34.74H183.454V28H186.034V44H183.454V37.02H181.234V44H178.654ZM195.116 44.18C193.769 44.18 192.796 43.9 192.196 43.34C191.609 42.7667 191.302 41.8267 191.276 40.52C191.249 39.0533 191.236 37.5467 191.236 36C191.236 34.44 191.249 32.9267 191.276 31.46C191.302 30.1533 191.609 29.22 192.196 28.66C192.796 28.1 193.769 27.82 195.116 27.82C196.449 27.82 197.402 28.1 197.976 28.66C198.562 29.22 198.876 30.1533 198.916 31.46C198.956 32.94 198.976 34.4533 198.976 36C198.976 37.5467 198.956 39.0533 198.916 40.52C198.876 41.8267 198.562 42.7667 197.976 43.34C197.402 43.9 196.449 44.18 195.116 44.18ZM195.116 42.08C195.902 42.08 196.309 41.72 196.336 41C196.376 39.9867 196.402 38.9 196.416 37.74C196.429 36.5667 196.429 35.4 196.416 34.24C196.402 33.08 196.376 32 196.336 31C196.309 30.28 195.902 29.92 195.116 29.92C194.302 29.92 193.882 30.28 193.856 31C193.829 32 193.809 33.08 193.796 34.24C193.782 35.4 193.782 36.5667 193.796 37.74C193.809 38.9 193.829 39.9867 193.856 41C193.882 41.72 194.302 42.08 195.116 42.08ZM204.013 44V28H208.273L209.473 34.18L209.853 41.7H210.333L210.713 34.18L211.933 28H216.153V44H213.573V39.12L214.073 30.28H213.553L212.653 39.32L211.553 43.98H208.633L207.553 39.32L206.633 30.28H206.133L206.593 39.14V44H204.013ZM221.536 44V28H227.856V30.28H224.116V34.74H227.656V37.02H224.116V41.72H227.856V44H221.536Z" fill="white"/>
</g>
<rect width="56" height="72" fill="#D5966C"/>
<path d="M32 48L24 36L32 24" stroke="white"/>
<defs>
<clipPath id="clip0_0_12">
<rect width="208" height="72" fill="white" transform="translate(56)"/>
</clipPath>
</defs>
</svg>
